<?xml version="1.0" encoding="UTF-8" standalone="no"?>
<!-- Created with Inkscape (http://www.inkscape.org/) -->

<svg
   xmlns:dc="http://purl.org/dc/elements/1.1/"
   xmlns:cc="http://creativecommons.org/ns#"
   xmlns:rdf="http://www.w3.org/1999/02/22-rdf-syntax-ns#"
   xmlns:svg="http://www.w3.org/2000/svg"
   xmlns="http://www.w3.org/2000/svg"
   xmlns:sodipodi="http://sodipodi.sourceforge.net/DTD/sodipodi-0.dtd"
   xmlns:inkscape="http://www.inkscape.org/namespaces/inkscape"
   width="744.09448819"
   height="1052.3622047"
   id="svg3768"
   version="1.1"
   inkscape:version="0.48.1 "
   sodipodi:docname="OpenRovLogo.svg">
  <defs
     id="defs3770" />
  <sodipodi:namedview
     id="base"
     pagecolor="#ffffff"
     bordercolor="#666666"
     borderopacity="1.0"
     inkscape:pageopacity="0.0"
     inkscape:pageshadow="2"
     inkscape:zoom="1"
     inkscape:cx="743.58797"
     inkscape:cy="468.69489"
     inkscape:document-units="px"
     inkscape:current-layer="layer1"
     showgrid="false"
     inkscape:snap-smooth-nodes="true"
     showguides="true"
     inkscape:guide-bbox="true"
     inkscape:window-width="1536"
     inkscape:window-height="910"
     inkscape:window-x="-8"
     inkscape:window-y="-8"
     inkscape:window-maximized="1">
    <sodipodi:guide
       orientation="0,1"
       position="315.3826,531.06648"
       id="guide3828" />
    <sodipodi:guide
       orientation="0,1"
       position="311.42857,522.76786"
       id="guide3830" />
    <sodipodi:guide
       orientation="1,0"
       position="310.13393,519.86607"
       id="guide3832" />
    <sodipodi:guide
       orientation="1,0"
       position="320.35714,527.94643"
       id="guide3834" />
    <sodipodi:guide
       orientation="1,0"
       position="327.09443,525.62402"
       id="guide3836" />
    <sodipodi:guide
       orientation="0,1"
       position="338.45003,524.61799"
       id="guide3838" />
    <sodipodi:guide
       orientation="1,0"
       position="352.9375,529.10937"
       id="guide3840" />
    <sodipodi:guide
       orientation="0,1"
       position="340.875,529.23437"
       id="guide3842" />
    <sodipodi:guide
       orientation="6.1230318e-017,1"
       position="370.65654,531.06648"
       id="guide3844" />
    <sodipodi:guide
       orientation="0,1"
       position="373.13141,531.50123"
       id="guide3846" />
  </sodipodi:namedview>
  <metadata
     id="metadata3773">
    <rdf:RDF>
      <cc:Work
         rdf:about="">
        <dc:format>image/svg+xml</dc:format>
        <dc:type
           rdf:resource="http://purl.org/dc/dcmitype/StillImage" />
        <dc:title></dc:title>
      </cc:Work>
    </rdf:RDF>
  </metadata>
  <g
     inkscape:label="Layer 1"
     inkscape:groupmode="layer"
     id="layer1">
    <path
       style="fill:#000000"
       d="m 315.68597,531.9197 c -3.56183,0.0156 -6.64191,-0.0137 -6.84458,-0.065 -0.2027,-0.0517 -0.52213,-0.2305 -0.70985,-0.39715 -0.1878,-0.16672 -0.45721,-0.5271 -0.59884,-0.80099 -0.20145,-0.38954 -0.25738,-1.55353 -0.25685,-5.34398 5.7e-4,-4.47337 0.0283,-4.89112 0.35867,-5.43305 0.19688,-0.32291 0.54897,-0.69603 0.78241,-0.82918 0.3286,-0.18741 1.90144,-0.24209 6.96567,-0.24209 5.06424,0 6.63707,0.0547 6.96568,0.24209 0.23344,0.13313 0.58553,0.50627 0.78241,0.82918 0.32997,0.54115 0.35802,0.95874 0.35867,5.33769 5.4e-4,3.59701 -0.0603,4.89459 -0.25027,5.34355 -0.13802,0.3261 -0.43684,0.75874 -0.66401,0.96143 -0.39502,0.35245 -0.69551,0.36978 -6.88911,0.39758 z m -0.42442,-2.3323 5.09607,0 0,-4.14586 0,-4.14584 -4.97502,0 -5.24867,0 0,8.29862 5.12768,-0.007 z m 13.22996,2.39538 -1.39708,0 0,-10.68708 5.20481,0 c 0,0 5.61961,-0.047 5.7879,0.008 0.16829,0.0549 0.69316,0.33549 0.96735,0.59276 0.27419,0.25727 0.28183,0.92456 0.28183,2.58665 0.0467,2.03565 -0.52488,2.84795 -1.03035,3.22635 0,0 -0.0865,0.0351 -0.13217,0.0351 -0.61257,-2.9e-4 -4.16687,8e-5 -4.16687,8e-5 l -4.25214,0 0,2.11899 0,2.11899 -1.26338,0 z m 4.56688,-6.08059 c 2.75752,0 3.35139,-0.0478 3.59307,-0.28954 0.17472,-0.17472 0.28956,-0.60822 0.28956,-1.09241 0,-0.48418 -0.11498,-0.91777 -0.28956,-1.09239 -0.24168,-0.2417 -0.83555,-0.28955 -3.59307,-0.28955 l -3.3035,0 0,1.38194 0,1.38195 z m 14.01692,6.08059 -5.89631,0 0,-5.43827 0.0312,-5.24881 5.81901,0 5.89712,0 0.0111,1.83211 -4.47078,0.0104 -4.52402,0 0,1.10554 0,1.10557 2.57965,0 2.57964,0 0,1.01342 0,1.01345 -2.57964,0 -2.57965,0 0,1.28981 0,1.28981 4.51437,0 4.51437,0 0,1.01344 0,1.01343 -5.89632,0 z m 8.93661,0 -1.19769,0 0,-5.43567 0,-5.43567 0.96738,0.0117 0.96735,0.0117 4.51437,3.55428 4.51437,3.55428 0.05,-3.56508 0.05,-3.56507 1.19378,0 1.19381,0 0,5.43567 0,5.43567 -0.88045,0 c -0.61893,0 -0.72401,0.0331 -1.08349,-0.21146 -0.31795,-0.22803 -2.7021,-2.00656 -4.83977,-3.70406 -2.13769,-1.6975 -3.9679,-3.08637 -4.06713,-3.08637 -0.0992,0 -0.16827,0.14505 -0.15344,0.32246 0.0156,0.17745 0.0137,1.75279 -0.002,3.50095 l -0.0291,3.17848 -1.19769,0 z m 17.32044,0 -1.56622,0 0,-6.54124 0,-6.54122 6.3691,0 c 4.4728,0 6.48776,0.0634 6.76774,0.21335 0.21927,0.11733 0.49093,0.30563 0.60369,0.41839 0.11283,0.11284 0.30104,0.38444 0.41839,0.60371 0.12884,0.24062 0.21337,1.30562 0.21337,2.68652 0,1.25834 -0.089,2.54353 -0.19805,2.85599 -0.10893,0.31246 -0.41886,0.71279 -0.68872,0.88962 -0.32863,0.21532 -1.02694,0.35627 -2.11423,0.42674 l -1.62355,0.10522 2.67327,2.18318 c 1.47028,1.20073 2.76972,2.45407 2.88761,2.59611 0.18175,0.21911 -0.1222,0.10361 -2.00399,0.10361 -1.22008,0 -2.13547,0.0154 -2.16924,-0.0738 -0.0338,-0.0892 -1.28538,-1.29703 -2.64629,-2.57589 l -2.47438,-2.32523 -1.44114,0 -1.44116,0 0,2.4875 0,2.48752 -1.5662,0 z m 5.30831,-7.18614 c 2.80668,0 3.82518,-0.0607 4.07439,-0.24296 0.27526,-0.20129 0.32853,-0.49234 0.31041,-1.69639 -0.0117,-0.79937 -0.19961,-1.88827 -0.29963,-1.99634 -2.98785,0 -4.66349,0 -7.82728,0.0244 l 0,1.95561 0,1.95562 3.74211,0 z m 18.55334,7.1713 c -3.39498,-0.008 -6.29708,-0.0553 -6.44909,-0.10522 -0.15208,-0.05 -0.45921,-0.17999 -0.68263,-0.28851 -0.22345,-0.10854 -0.53439,-0.46746 -0.69099,-0.79748 -0.23428,-0.49372 -0.28472,-1.4552 -0.28472,-5.42663 0,-4.13731 0.0431,-4.89947 0.30137,-5.33679 0.16574,-0.28059 0.53093,-0.64578 0.81153,-0.81154 0.42757,-0.25257 1.12132,-0.30135 4.28462,-0.30135 l 3.77446,0 0.12084,0.64417 c 0.0664,0.3543 0.30372,0.85462 0.52722,1.1118 0.2408,0.27707 0.68666,0.5122 1.09431,0.57711 0.37834,0.0603 0.92223,0.0117 1.20864,-0.10619 0.28638,-0.11869 0.66088,-0.453 0.8322,-0.74303 0.1714,-0.29004 0.31151,-0.74257 0.31151,-1.00562 0,-0.4169 0.0769,-0.4782 0.59884,-0.4776 0.32937,3.9e-4 0.87332,0.16808 1.20878,0.37255 0.33546,0.20453 0.72933,0.65761 0.87523,1.00683 0.20671,0.49472 0.26524,1.64348 0.26503,5.20131 -2e-4,3.97825 -0.0418,4.6494 -0.32246,5.21125 -0.18429,0.36896 -0.59812,0.78278 -0.96708,0.96708 -0.57733,0.28842 -1.29173,0.32069 -6.81763,0.30792 z m -2.09777,-1.28667 c 0.11303,0.006 0.42395,-0.16007 0.69099,-0.37021 0.26701,-0.21005 0.48548,-0.54717 0.48548,-0.74916 0,-0.20199 -0.0884,-0.53231 -0.19629,-0.73405 -0.10795,-0.20173 -0.37702,-0.43365 -0.59791,-0.51535 -0.22086,-0.0818 -0.63052,-0.0687 -0.91035,0.0287 -0.3011,0.10503 -0.5541,0.35787 -0.61977,0.6196 -0.0611,0.24323 -0.0582,0.65313 0.006,0.91087 0.0646,0.25775 0.3017,0.5427 0.52669,0.63322 0.22499,0.0906 0.50155,0.16984 0.61456,0.17628 z m 3.67982,-2.93648 c 0.63186,0 0.93632,-0.10619 1.27486,-0.44478 0.24464,-0.24462 0.50001,-0.6648 0.56751,-0.93371 0.0675,-0.26891 0.0494,-0.7444 -0.04,-1.05661 -0.0896,-0.31223 -0.39066,-0.7378 -0.66918,-0.94574 -0.28415,-0.21216 -0.78832,-0.37806 -1.14892,-0.37806 -0.3606,0 -0.86477,0.16594 -1.14894,0.37806 -0.2785,0.20794 -0.57962,0.63351 -0.66917,0.94574 -0.0896,0.31221 -0.11361,0.75982 -0.0533,0.99467 0.0601,0.23486 0.32271,0.65502 0.58332,0.93371 0.38126,0.40767 0.63614,0.50672 1.30397,0.50672 z m -4.51398,-3.13241 c 0.38878,0 0.9271,-0.1755 1.29241,-0.42132 0.3901,-0.2625 0.71357,-0.68673 0.85817,-1.12544 0.17062,-0.51741 0.18155,-0.89162 0.0416,-1.41139 -0.10483,-0.389 -0.39502,-0.8682 -0.64505,-1.06488 -0.25003,-0.19668 -0.75937,-0.41478 -1.13186,-0.48464 -0.46702,-0.0877 -0.88673,-0.0326 -1.35193,0.17725 -0.37109,0.1673 -0.81329,0.53886 -0.9827,0.82565 -0.16945,0.28677 -0.30799,0.81565 -0.30799,1.1753 0,0.35962 0.0873,0.84433 0.19404,1.07712 0.10679,0.2328 0.45794,0.60982 0.7805,0.83785 0.34713,0.24538 0.85842,0.41458 1.25281,0.41458 z m 20.16025,7.3647 c -1.0865,0.002 -1.11223,-0.01 -1.49155,-0.68679 -0.21228,-0.37921 -1.62699,-2.84531 -3.14378,-5.48022 -1.51681,-2.63493 -3.02826,-5.26753 -3.3588,-5.85025 l -0.60102,-1.0595 1.72618,0 1.72616,0 0.56371,1.0595 c 0.31004,0.58272 1.16702,2.09595 1.9044,3.36273 0.73739,1.26679 1.67381,2.91371 2.08093,3.65983 0.50153,0.91911 0.78434,1.27562 0.87701,1.10557 0.0751,-0.13802 1.18238,-2.19275 2.46034,-4.56597 1.27796,-2.37322 2.32356,-4.38396 2.32356,-4.4683 0,-0.0843 0.70034,-0.15344 1.5563,-0.15344 l 1.55632,0 -0.77321,1.44257 c -0.42526,0.7934 -2.01695,3.73507 -3.5371,6.53704 l -2.76391,5.09447 -1.10554,0.002 z"
       id="path3826"
       inkscape:connector-curvature="0"
       sodipodi:nodetypes="ccsccccsccscsccccccccccccccczzccsccccccscscscccscccccccccccccccccccccccccccccccccccccccscsscccccccccscccsccscscscscccccccccccccccccccssccsccccccscccsccccccsccccccccccsccscccccccsccscccsccccccsccccssccssscssccc" />
  </g>
</svg>
